<svg viewBox="0 0 61.85 69.36" xmlns="http://www.w3.org/2000/svg"><g fill="#FFE798" stroke="#DD8948" stroke-width="2" stroke-miterlimit="10"><path d="m41.2 12.53s2.35.01 3.37.84c3.22 2.61 13.03 17.16 15.86 21.38s-1.76 11.95-1.76 11.95c-2.76 5.44-11.11 22.61-29.66 22.15s-25.91-12.62-27.51-27.74c-.92-8.74-1.23-11.03-.84-13.95.17-1.33 3.52-6.51 7.36-6.82s8.58-.46 10.73-.15 15.33 7.82 17.55 9.58c.41.33.62.79.66 1.32.17 2.36-2.94 6.17-6.25 6.11-4.06-.08-16.86-3.6-16.86-3.6s15.79 2.99 14.25 14.71c-.15 1.38 1.3 6.11 1.84.31.48-5.22.61-6.05 1.99-7.82s4.14-4.75 5.29-5.59 9.96 3.07 9.04 2.45c0 0-8.28-4.01-9.27-5.59"/><path d="m2.73 23.8c.15-4.98 1.84-11.95 4.9-12.8s11.11-.46 12.34-.31 4.44 1.07 6.44 2.45 9.34 5.8 11.26 7.13c4.67 3.22 3.3 9.04-3.68 8.12"/><path d="m7.63 11c1.15-2.22 3.37-5.59 4.9-6.44s8.66-.23 11.65.46 11.88 6.67 13.87 8.51 5.13 6.36.23 7.2"/></g></svg>