<svg viewBox="0 0 71 87" xmlns="http://www.w3.org/2000/svg"><path d="m23.22 48.47c.07-4.33-.45-34.61-.45-38.93 0-6.09 9.02-6.82 9.16-.07.16 7.56.66 25.81.66 25.81s.15-3.67.37-5.57 8.25-3.58 9.6 1.03c1.47 4.99 0 0 0 0s7.23-2.68 8.58 1.76c1.03 3.37 0 0 0 0s7.99-1.03 8.65 5.13 1.91 15.91.07 22.36-5.94 4.03-6.6 9.46.07 10.34.07 10.34l-26.69 1.17s-.52-5.6-1.39-9.24c-1.32-5.5-8-11.95-9.59-14.8-1.76-3.15 4.25-14.88 7.33-18.33" fill="#FFE798" stroke="#DD8948" stroke-width="2" stroke-miterlimit="10"/></svg>