<svg viewBox="0 0 97 62" xmlns="http://www.w3.org/2000/svg"><g fill="#FFE798" stroke="#DD8948" stroke-width="2" stroke-miterlimit="10"><path d="m89.84 17.09c2.76-1.02 9.05-.84 4.92 3.78s-4.2 9.41-4.26 12.29-1.08 4.32-1.08 6.06 1.62 6.77 1.98 7.85-12.71 11.99-14.57 10.37-5.58-6.77-7.61-8.03-7.25-7.19-8.63-10.55-4.08-8.15-4.98-9.71-2.22-4.74-3.3-6.83.72-5.46 3.48-2.22 5.94 7.85 6.71 9.05-7.73-11.35-8.93-13.61c-1.5-2.82.66-7.85 4.14-4.08s9.95 13.37 9.53 13.73c0 0-8.09-12.23-9.59-14.63s1.44-7.73 4.44-4.08c.52.64.88 1.22 1.61 2.25 3.94 5.57 11.93 18.28 6.96 11.18 0 0-5.46-8.81-6.65-10.49s1.02-5.88 3.96-2.04 6.89 7.9 8.63 10.25c1.84 2.48 1.1 1.05 3.84 6.06.91 1.66 4.24.78 5.46-1.68 1.16-2.35 1.68-4.08 3.96-4.92z"/><path d="m8 15.83c-2.76-1.02-8.33-1.26-4.2 3.36s4.89 10.82 4.95 13.7 1.08 4.32 1.08 6.06-1.62 6.77-1.98 7.85 11.48 10.94 13.34 9.32 5.58-6.77 7.61-8.03 7.67-6.24 9.47-9.65c1.69-3.21 4.47-8 5.37-9.56s2.22-4.74 3.3-6.83-.72-5.46-3.48-2.22-5.94 7.85-6.71 9.05 7.8-11.55 9.23-13.67c1.77-2.61-.87-7.94-4.35-4.17-3.48 3.78-9.86 13.76-9.86 13.76s8.33-12.11 9.83-14.51-1.35-7.7-4.35-4.05c-.52.64-.97 1.19-1.7 2.22-3.94 5.57-11.93 18.28-6.96 11.18 0 0 5.46-8.81 6.65-10.49s-1.02-5.88-3.96-2.04-6.89 7.9-8.63 10.25c-1.84 2.48-.27.27-3.45 5.01-1.13 1.68-4.86 1.5-5.58-1.02s-3.36-4.68-5.64-5.52z"/></g></svg>