<svg viewBox="0 0 61 87" xmlns="http://www.w3.org/2000/svg"><path d="m15.11 48.59c.07-4.33-.38-32.99-.38-37.32 0-6.09 9.02-6.82 9.16-.07.16 7.56.66 25.81.66 25.81s.63-26.72.65-28.64c.08-7.19 8.89-6.87 9.61-.57.6 5.16-.29 24.66-.29 24.66s7.31-2.4 8.13 2.16c.57 3.15.16.32.16.32s7.26-.99 7.92 5.17 1.67 14.63-.16 21.08-4.68 4.55-5.34 9.98.07 10.34.07 10.34l-27.29.85s-1.39-6.54-2.26-10.18c-1.32-5.5-6.62-10.66-7.19-16.32-.53-5.3 2.91-13.97 6.46-17.12" fill="#FFE798" stroke="#DD8948" stroke-width="2" stroke-miterlimit="10"/></svg>