<svg viewBox="0 0 51 85" xmlns="http://www.w3.org/2000/svg"><path d="m36.54 37.28s6.33-2.29 6.96 7.44c.37 5.76.67 10.16-.08 14.24-.34 1.87-5.46 12.34-5.46 17.64s-5.7 6.01-14.48 5.93-15.9-3.24-15.9-3.24-.08-3.16-.08-6.72-5.14-7.2-5.46-11.47 0-5.78.16-9.97 5.22-10.84 5.3-14.79-.23-20.5.08-25.08c.4-5.85 8.77-8.31 8.62 1.5-.15 9.92.37 18.43.79 22.15.46 4.01 1.82 7.98 1.34.24s-.06-23.81 0-27.53c.08-5.14 8.86-7.28 9.18.71.37 9.41-.16 26.11-.16 28.96s.79 1.66 1.03-.4 1.55-20 2.14-25.32c.71-6.49 6.96-8.15 7.12-1.34.19 7.99-1.11 27.06-1.11 27.06z" fill="#FFE798" stroke="#DD8948" stroke-width="2" stroke-miterlimit="10"/></svg>