<svg viewBox="0 0 53 83" xmlns="http://www.w3.org/2000/svg"><path d="m37.54 78.76s.15-4.49 0-7.67 1.86-5.11 2.94-7.67 3.02-9.06 3.33-13.94 1.63-18.13 2.25-21.92.87-4.55 1.01-6.66c.23-3.64-4.42-6.27-5.96-1.08s-3.55 14.85-4.57 16.89c-.93 1.86.08-7.36.62-12.24s1.08-9.3 1.01-12.47-4.8-6.2-6.2-.62-3.13 14.94-3.25 17.35c-.15 3.1-.78 7.11-.93 8.75-.18 1.93.85-10.38.77-14.79s.46-10.07 0-13.48-8.29-5.73-8.6-.08-.46 25.87-.54 27.27-.93-1.39-1.47-6.66-.39-8.21-.54-12.7-.39-3.8-.54-5.89-6.66-5.19-7.05.31-.08 17.35.08 22.31-4.26 6.97-4.8 12.24-.15 11.85 2.17 16.11 3.02 3.33 3.18 8.91 0 6.74 0 6.74 5.42 2.25 13.01 2.48 13.87-1.63 14.1-1.47z" fill="#FFE798" stroke="#DD8948" stroke-width="2" stroke-miterlimit="10"/></svg>