<svg viewBox="0 0 86 87" xmlns="http://www.w3.org/2000/svg"><path d="m63.69 83.65c-.94-10.58 2.44-19.5 3.55-23.02 1.53-4.85 1.73-11.47 2.37-15.51s2.18-14.14 3.8-19.14-3.63-8.29-5.17-3.77-2.26 5.22-2.99 9.02-1.13 5.25-2.34 7.43.4-8 .57-13.73 1.08-9.18 1.37-11.63c.57-4.68-5.25-8.89-7.03-2.58s-3.07 24.23-3.47 27.63-.16-11.31-.24-16.4-.32-8.32-.4-13-8.97-7.92-9.13-.81-.65 28.84-.57 31.42-1.21-6.95-1.45-13.25-.57-6.95-.65-12.36-8.16-6.87-8.4-.16.48 15.27.57 20.11-.32 4.93-.32 6.22-.4 8.56-2.99 8.4-9.53-5.57-16.64-5.57-10.82 4.17-4.04 7.16c6.79 2.99 10.26 6.95 12.92 11.87s6.14 5.01 7.92 5.74 2.83 3.91 2.67 7.14.32 7.27.32 8.32 6.22 2.21 13.25 2.29 16.76.77 16.53-1.81z" fill="#FFE798" stroke="#DD8948" stroke-width="2" stroke-miterlimit="10"/></svg>