<svg viewBox="0 0 85 83" xmlns="http://www.w3.org/2000/svg"><path d="m6.44 36.93c3.72 0 21.15-6.12 22.93-13.63s5.82-12.36 12.01-13.03c7.9-.85 19 1.23 22.15.85 8.44-1.01 2.32 11.31-4.73 12.08-7.78.85-10.53-.46-12.63-1.24s5.42 2.09 6.66 3.18 2.25 2.88 3.8 4.12c1.36 1.09 10.46 1.24 15.72 1.7s5.27 9.91 3.56 11.7c-1.08 1.13-1.54.97-.54 1.7 1.78 1.32 3.41 10.07-.62 12.86-1.44.99-.94.99.15 1.86 1.55 1.24-.23 9.81-3.25 10.53-1.01.24-.81-.1-.23.54.77.86-.85 9.37-7.58 9.68s-23.25 2.72-30.38-.46-3.8-5.96-11.46-6.66-11.46 1.63-13.48-1.63-2.09-34.16-2.09-34.16z" fill="#FFE798" stroke="#DD8948" stroke-width="2" stroke-miterlimit="10"/></svg>