<svg viewBox="0 0 89 72" xmlns="http://www.w3.org/2000/svg"><path d="m1.96 34.83s5.6-.52 9.24-1.39c5.5-1.32 11.8-11 14.15-13.27s7.55-11.29 8.65-15.69 5.58.59 5.5 4.47c-.15 7.04-2.57 12.02-2.42 15.1s.73 7.11 5.06 7.18 26.91-.29 31.23-.29c6.09 0 6.82 9.02.07 9.16-7.56.16-25.81.66-25.81.66s29.89-.84 31.81-.74c6.56.34 4.58 8.18-.2 8.61-7.65.68-28.07.82-28.07.82 3.93-.3 4.92 8.41-.74 9.86-3.42.87 0 0 0 0s1.03 7.99-5.13 8.65-15.91 1.91-22.36.07-4.03-5.94-9.46-6.6-10.34.07-10.34.07l-1.17-26.69z" fill="#FFE798" stroke="#DD8948" stroke-width="2" stroke-miterlimit="10"/></svg>