<svg viewBox="0 0 86 54" xmlns="http://www.w3.org/2000/svg"><path d="m1.45 13.41s8.26.69 13.01-.64 11.25-7.2 19.51-7.2c6.4 0 15.25 4.21 15.25 4.21l-10.23.43s29.8 0 35.39.11 8.69 8.64 1.55 8.74-27.92.68-27.24.8c1.23.21 27.29-.4 30.65-.48 4.42-.11 9.01 8.8-1.01 9.01s-28.78-.05-29.85 0-1.71.32-.16.27 23.77-.26 27.03-.16c5.44.16 7.73 8.69.27 8.74-7.94.06-27.35.43-28.46.48s-1.01.27-.05.27 19.46-.11 21.8-.16 6.88 7.14-.37 7.41-15.41.69-20.95 1.44-17.43.8-21.22.53-9.22-6.24-13.86-6.34-9.7-.8-10.02-.75-1.33-8.85-1.44-12.05.43-14.66.43-14.66z" fill="#FFE798" stroke="#DD8948" stroke-width="2" stroke-miterlimit="10"/></svg>