<?xml version="1.0" encoding="UTF-8"?>
<svg id="Layer_2" data-name="Layer 2" xmlns="http://www.w3.org/2000/svg" viewBox="0 0 39.27 47.82">

  <g id="e">
    <path id="left" class="cls-1" d="M9.4,41.32c1.78-2.22,2.39-2.43,4.48-4.12s6.11-6.27,6.51-6.75,9.16-8.76,10.61-9.57c1.45-.8,4.82-3.46,6.91-4.82,1.94-1.27.16-2.89-1.53-2.25-1.69.64-6.99,4.66-7.72,4.98s-1.77-1.05-.48-2.25c1.29-1.21,7.15-7.56,8.36-8.76,1.09-1.09-.76-4.08-2.33-2.17-1.85,2.25-7.4,8.04-8.44,8.92-.89.75-2.17,2.09-2.33,1.77s.88-2.25,1.69-3.3,6.03-8.04,7.64-9.73-.64-3.7-2.09-2.33-5.36,6.92-6.51,8.36c-2.57,3.22-3.94,2.97-3.94,2.97,0,0,3.62-6.19,4.34-7.4.72-1.21-.64-3.86-2.01-2.25-1.37,1.61-4.66,7.24-5.14,8.2s-1.77,2.89-2.41,4.02-2.49,2.33-1.93.8.08-2.89.24-3.94c.11-.71.32-2.97-.08-3.86s-2.33-1.69-2.41-.64c-.08,1.05-.32,4.18-.56,4.98-.24.8-.88,2.57-1.61,4.1-.72,1.53-2.33,3.7-2.57,6.27s-.64,4.9-2.17,6.43-1.35,1.54-2.88,3.23.48,4.98,2.25,6.19c1.77,1.21,4.18,5.31,6.11,2.89Z"/>
    <path id="right" class="cls-1" d="M36.04,43.65c-.79-3.88-1.46-3.88-.78-6.52s.64-8.86.29-11.47c-.24-1.75-3.26-4.4-3.75-4.48s-1.85-1.29-2.25-1.45-1.68-2.3-3.14-2.25c-.8.03-1.61.4-1.61.4,0,0-.48.6-.48-.69s-.08-4.34-.24-5.71c-.16-1.37-.36-4.1-.4-5.14-.16-3.86-4.1-3.3-4.02-.96.08,2.33.16,7.24.08,8.52s.72,15.27,1.21,18.17,3.24,10.81,3.16,13.38,12.89,2.95,11.93-1.79Z"/>
  </g>
</svg>