<?xml version="1.0" encoding="UTF-8"?>
<svg id="Layer_2" data-name="Layer 2" xmlns="http://www.w3.org/2000/svg" viewBox="0 0 695.94 726.2">
  <g id="Layer_1-2" data-name="Layer 1">
    <g>
      <path fill="#b75e5e" d="M506.63,726.2l1.99-20c-6.04,2.83-11.19,6.03-17.79,7.7-38.01,9.6-59.21-9.85-92.82-14.59-28.29-3.99-54.4,5.97-82.92-3.08-10.08-3.2-23.8-12.28-32.96-14.04-2.03-.39-1.43-.21-1.02,1.02,4.46,13.64,6.44,28.68,6.52,42.99h-13c-.57-15.6-2.06-33.24-9.12-47.38-6.37-12.75-20.48-22.35-30.39-32.61-15.88-16.44-29.69-35.03-45.46-51.54-14.89-15.59-32.81-27.08-45.05-44.95-12.7-18.54-20.46-36.35-36.94-53.06-10.47-10.61-24.24-18.93-35.04-28.96-13.27-12.32-22.06-28.53-35.97-41.03-15.99-14.36-46.1-26.96-33.74-53.72,10.93-23.69,46.39-22.75,67.52-16.06,37.65,11.94,49.88,31.5,76.2,56.8,9.49,9.12,33.4,32.07,44.03,36.97,8.35,3.85,22.59,5.78,29.93-1.03,3.24-3,9.71-24.17,11.32-29.68,18.92-65.14-1.63-118.68-11.98-181.56-3.52-21.39-5.21-43.11-8.46-64.54-4.14-27.34-18.65-79.83-10.29-104.63,7.5-22.25,36.81-32.76,55.47-17.55,19.36,15.78,25.55,78.23,31.47,103.53,3.77,16.09,9.3,31.63,13.43,47.57,4.83,18.64,15.41,83.35,26.08,93.92,2.93,2.9,6.97,3.95,11.01,3.5-.83-3.92,1.04-7.86,1.03-11.46-.03-32.16-3.42-64.73-2.08-97.09,1.54-37.11,8.75-74.41,6-112,1.99-33.37-1.02-82.8,46.58-79.5,43.81,3.03,35.03,54.61,34.42,84.5-1,48.39,3.63,96.32,2.08,144.08-.66,20.37-4.69,41.63-3.08,61.99.6,7.52,2.26,15.36,10.48,17.45,3.55-.81,16.52-61.85,18.84-70.2,6.18-22.19,14.79-43.66,21.21-65.79,7.17-24.7,16.23-81.39,29.27-99.73,16.36-23,54.58-15.44,64,9.46,8.33,22.01-10.18,75.43-15.46,100.08-4.85,22.62-7.91,45.6-12.8,68.2-5.3,24.47-22.68,69.64-22.5,91.48.09,11.46,10.53,19.77,20.95,12.96,9.13-5.97,22.19-28.62,29.65-38.35,7.5-9.78,15.96-18.79,23.21-28.79,15.23-20.99,40.27-73.01,64.21-80.79,24.85-8.07,45.61,16.09,40.51,40.51-4.81,23.01-44.78,82.83-59.12,105.88-14.53,23.36-35.39,47.85-43.87,74.13-20.61,63.8-16.75,136.43-40.79,200.21-7.53,19.96-18.95,37.17-25.01,57.99-3.82,13.11-6.45,27.07-6.74,40.76h-13ZM412.59,74.66c.49-17.7,5.74-49.31-13.58-59.34-18.07-9.37-34.58,1.07-39.08,19.68-5.54,22.91-1.67,48.55-4.04,71.75l55.75,3.46c.75-11.83.63-23.69.95-35.55ZM272.63,143.2c-4.28-21.49-6.56-44.65-14.25-65.24-5.1-13.65-10.28-22.87-26.99-20.49-23.38,3.33-21.54,28.53-19.63,46.11,1.92,17.66,6.78,35,8.88,52.63,16.81-6.05,33.72-13.43,52-13.01ZM541.12,172.22c4.08-15.95,8.67-31.88,12.03-48,3.56-17.09,11.07-40.26-9.14-49.89-11.37-5.42-22.95-4.51-30.79,5.96-7.91,10.56-19.56,59.97-22.13,74.86-.29,1.67-.72,3.31-.44,5.03l50.47,12.04ZM471.73,249.6c-1.08-1.03-2.54-1.44-2.09-3.4,17.6,6.58,35.9,12.93,54.94,12.95l14.97-79.33-50.92-15.62c-5.29,23.8-14.96,46.43-21.72,69.78-8.42,29.07-13.65,59.16-22.32,88.18-24.8-.13-33.76-14-34.03-37.43l4.05-69.53c-18.15,6.45-40.15,8.48-56.99-2.51,9.88-.35,19.59,1.85,29.54,1.55,3.52-.11,9.22-.73,12.84-1.17,2.26-.27,13.45-1.78,14.19-2.81l-4.15-94.95-30.96.92-22.99-3.1c-1.08,9.73-.72,19.81-1.48,29.54-2.56,32.63-4.71,57.99-4,91.02.51,23.52,1.31,46.91,1.02,70.48,14.52,1.3,29.14,2.28,43.48,5.02,1.46.28,3.1,0,3.51,1.98-19.87.26-41.76,2.55-61.54,1.05-20.39-1.55-25.79-15.46-30.96-33.04-5.31-18.05-7.71-37.48-12.18-55.82-6.06-24.87-15.1-49.01-19.8-74.23l-.97-.7-51.55,12.78,11,77.97,54.99-11c-13.91,13.8-35.34,15.61-54,16l16,79.99c17.36-6.81,35.21-13.57,53.99-14.98l-52.83,23.15.89,53.79c70.77,15.28,137.99,50.28,190.96,99.53,6.97,6.48,15.15,14.47,21.5,21.5,3.81,4.22,20.25,23.63,21.47,27.53.16.51.27,1.63-.48,1.48-52.26-59.37-119.59-105.08-194.5-130.99,38.82,28.34,66.52,69.1,82.02,114.47,11.34,33.18,19.34,77.71-3.52,107.51.82-11.22,5.64-22.02,6.49-33.51,4.65-62.9-33.75-141.61-84.27-178.71-12.22-8.98-25.84-15.72-39.23-22.75l-13.48,49.98,37.5-27.99c.99.1.51,1.57.3,2.29-1.9,6.42-18.65,23.02-24.33,27.67-7.13,5.84-15.82,9.84-22.47,16.02l21.48-1.01,24.51-4.49c-17.47,12.83-44.26,15.06-65.48,13.49-35.47-2.62-51.5-28.5-76.02-49.98-5.34,16.49-18.07,31.17-35.49,34.99,12.4-11.17,24.13-23.51,31-38.98-3.37-.36-5.38,2.98-8.01,4.48l-20.99,22.5c2.45-10.57,8.28-19.21,15-27.48l7.97-6.98c-21.36-24.24-60.34-48.66-93.78-39.83-9.26,2.45-19.16,9.81-16.98,20.56,1.68,8.27,26.45,24.64,33.79,31.22,14.9,13.36,27.13,29.77,41.46,43.54,17.6,16.91,33.53,28.07,48.34,48.66,8.87,12.33,15.7,28.65,25.21,39.79,7.55,8.84,19.03,16.35,27.5,24.5,5.95,5.72,10.71,12.59,16.98,18.02,0-24.68.42-49.26,8-72.99l6.49-18-6.03,64.45c-.27,8.66-.11,31.02,2.5,38.58,1,2.88,20.87,24.7,24.52,28.48,32.17,33.42,61.35,52.96,109.54,37.49,13.88-4.45,27.89-12.8,39.3-21.7,2.58-10.67,4.4-21.82,5.23-32.77.32-4.16-.56-9.02-.04-13.06.19-1.46.76-3.09,2-1.48-.43,12.27,4.43,40.44-1.99,50.5-8.81,13.82-30.85,28.13-46.02,33.98l-19.98,6.51c8.48-.28,17.06.4,25.54.05,12.67-.51,25.16-2.83,37.95-2.03,38.07,2.39,75.24,27.34,112.81,3.79,8.5-5.33,6.76-11.43,9.94-20.06,5.68-15.42,13.97-29.64,20.23-44.77,17.77-42.99,21.9-89.83,29.31-135.37-20.13-16.38-47.34-20.92-71.3-29.58-52.47-18.98-108.89-50.09-141.3-96.7-2.63-3.78-5.58-7.98-7.18-12.31,13.7,13.75,26.69,28.4,41.52,40.97,31.98,27.13,73.53,47.99,112.95,62.05,22.17,7.9,45.48,12.92,65.99,24.98,1.12-.66,1.21-1.42,1.48-2.55,1-4.31,4.7-21.76,3.84-24.73l-21.79-30.71,6.47,4.02,18.51,16.97c.65-6.44,5.17-16.1,3.81-22.28-.59-2.68-7.18-11.11-9.29-13.73-8.62-10.72-19.59-19.54-28.51-29.98,12.5,5.32,23,14.57,32.51,23.98l9.47,12.01c7.41-18.58,19-34.97,29.99-51.5-13.52-6.47-28.27-14.76-33.97-29.49,11.95,8.64,23.34,18.53,37.36,23.86l28.71-47.22c-13.39-7.91-26.68-16.44-37.58-27.62l-29.5,37.97c13.39,3.7,25.99,12.62,30.99,26.01l-32.5-23.82c-14.37,14.93-26.99,51.94-53.46,43.3-9.65-3.15-14.09-9.9-18.66-18.34l-47.36-19.14c-.23-1.78,2.25-.97,3.36-.86,14.25,1.38,29.45,7.87,43.17,11.86,2.74.56,1.66-5.31.48-6.5l-49.02-17.99c17.75-1.66,34.55,6.03,51,11.5l17.01-65c-5.33-.39-11.26.53-16.5,0-9.76-.99-27.25-7.73-34.4-14.6ZM673.15,267.22c7.44-14.2,19.62-37.5-.62-47.42-19.89-9.75-34.68,15.88-43.92,29.88-6.62,10.03-12.37,20.81-18.7,31.04.2,2.44,37.68,27.81,39.63,26.43,7.21-13.64,16.45-26.26,23.6-39.93Z"/>
      <path fill="#f3dece" d="M287.39,726.2c-.08-14.31-2.06-29.35-6.52-42.99-.4-1.23-1.01-1.41,1.02-1.02,9.16,1.77,22.88,10.85,32.96,14.04,28.52,9.05,54.63-.9,82.92,3.08,33.61,4.74,54.81,24.18,92.82,14.59,6.61-1.67,11.76-4.86,17.79-7.7l-1.99,20h-219ZM311.85,710.23c20.57,6.22,42.1,8.04,63.53,6.96-1.09-2.25-4.78-2.87-6.99-3.5-21.58-6.1-46.68-7.8-69-9.48l12.46,6.02Z"/>
      <path fill="#f3dece" d="M522.39,264.2l-17.01,65c-16.45-5.47-33.25-13.16-51-11.5l49.02,17.99c1.18,1.18,2.26,7.05-.48,6.5-13.72-3.99-28.92-10.48-43.17-11.86-1.11-.11-3.59-.92-3.36.86l47.36,19.14c4.57,8.45,9.01,15.19,18.66,18.34,26.47,8.64,39.1-28.37,53.46-43.3l32.5,23.82c-5-13.39-17.6-22.31-30.99-26.01l29.5-37.97c10.91,11.18,24.2,19.71,37.58,27.62l-28.71,47.22c-14.02-5.33-25.41-15.22-37.36-23.86,5.7,14.73,20.44,23.03,33.97,29.49-10.99,16.53-22.58,32.92-29.99,51.5l-9.47-12.01c-9.52-9.41-20.01-18.66-32.51-23.98,8.92,10.44,19.9,19.26,28.51,29.98,2.11,2.62,8.69,11.04,9.29,13.73,1.36,6.18-3.16,15.84-3.81,22.28l-18.51-16.97-6.47-4.02,21.79,30.71c.86,2.97-2.84,20.42-3.84,24.73-.26,1.13-.35,1.89-1.48,2.55-20.51-12.06-43.83-17.08-65.99-24.98-39.42-14.06-80.97-34.92-112.95-62.05-14.83-12.58-27.82-27.22-41.52-40.97,1.6,4.33,4.55,8.54,7.18,12.31,32.4,46.62,88.83,77.73,141.3,96.7,23.96,8.67,51.17,13.21,71.3,29.58-7.41,45.54-11.54,92.38-29.31,135.37-6.25,15.13-14.55,29.35-20.23,44.77-3.18,8.63-1.44,14.73-9.94,20.06-37.58,23.54-74.74-1.41-112.81-3.79-12.79-.8-25.28,1.52-37.95,2.03-8.48.34-17.06-.33-25.54-.05l19.98-6.51c15.18-5.85,37.21-20.15,46.02-33.98,6.42-10.06,1.56-38.23,1.99-50.5-1.24-1.62-1.81.02-2,1.48-.51,4.04.36,8.9.04,13.06-.83,10.95-2.65,22.1-5.23,32.77-11.41,8.9-25.42,17.25-39.3,21.7-48.19,15.47-77.37-4.07-109.54-37.49-3.65-3.79-23.52-25.6-24.52-28.48-2.61-7.57-2.77-29.92-2.5-38.58l6.03-64.45-6.49,18c-7.57,23.73-8.01,48.32-8,72.99-6.27-5.43-11.03-12.3-16.98-18.02-8.47-8.15-19.94-15.67-27.5-24.5-9.51-11.13-16.35-27.46-25.21-39.79-14.81-20.59-30.74-31.75-48.34-48.66-14.33-13.77-26.56-30.18-41.46-43.54-7.34-6.58-32.11-22.95-33.79-31.22-2.18-10.75,7.72-18.12,16.98-20.56,33.44-8.83,72.41,15.58,93.78,39.83l-7.97,6.98c-6.73,8.27-12.55,16.92-15,27.48l20.99-22.5c2.63-1.5,4.65-4.84,8.01-4.48-6.87,15.47-18.6,27.81-31,38.98,17.42-3.82,30.15-18.49,35.49-34.99,24.52,21.49,40.55,47.36,76.02,49.98,21.22,1.57,48.01-.67,65.48-13.49l-24.51,4.49-21.48,1.01c6.65-6.18,15.34-10.18,22.47-16.02,5.69-4.65,22.44-21.25,24.33-27.67.21-.72.69-2.2-.3-2.29l-37.5,27.99,13.48-49.98c13.39,7.04,27.01,13.78,39.23,22.75,50.51,37.1,88.92,115.81,84.27,178.71-.85,11.49-5.68,22.29-6.49,33.51,22.87-29.81,14.86-74.34,3.52-107.51-15.5-45.37-43.2-86.13-82.02-114.47,74.92,25.9,142.25,71.62,194.5,130.99.75.16.64-.96.48-1.48-1.22-3.9-17.66-23.31-21.47-27.53-6.35-7.03-14.53-15.02-21.5-21.5-52.97-49.25-120.19-84.26-190.96-99.53l-.89-53.79,52.83-23.15c-18.78,1.41-36.63,8.17-53.99,14.98l-16-79.99c18.66-.39,40.09-2.2,54-16l-54.99,11-11-77.97,51.55-12.78.97.7c4.7,25.23,13.74,49.36,19.8,74.23,4.47,18.33,6.87,37.76,12.18,55.82,5.17,17.58,10.57,31.49,30.96,33.04,19.78,1.5,41.67-.79,61.54-1.05-.41-1.99-2.05-1.7-3.51-1.98-14.34-2.74-28.96-3.72-43.48-5.02.29-23.57-.51-46.97-1.02-70.48-.71-33.03,1.44-58.39,4-91.02.76-9.73.4-19.81,1.48-29.54l22.99,3.1,30.96-.92,4.15,94.95c-.74,1.03-11.93,2.54-14.19,2.81-3.61.43-9.31,1.06-12.84,1.17-9.95.31-19.65-1.9-29.54-1.55,16.84,10.98,38.84,8.96,56.99,2.51l-4.05,69.53c.26,23.43,9.23,37.3,34.03,37.43,8.67-29.02,13.9-59.11,22.32-88.18,6.77-23.36,16.43-45.99,21.72-69.78l50.92,15.62-14.97,79.33c-19.04-.02-37.34-6.37-54.94-12.95-.46,1.96,1.01,2.37,2.09,3.4,7.16,6.86,24.64,13.61,34.4,14.6,5.24.53,11.17-.39,16.5,0ZM408.4,200.7c-15.3-9.46-35.94-10.21-51.99-1.98-1.15.59-2.77.92-3.02,2.47l55.01-.49ZM286.38,215.21c-16.22-3.06-34.75,1.86-46.99,12.98l46.99-12.98ZM471.4,238.19c17.28,3.42,33.99,8.71,49.98,16.01,2.39-2.51-14.1-12.62-16.01-13.48-2.13-.96-11.91-4.52-13.48-4.52-5.38,0-13.01-.69-18,0-.4.06-2.86.98-2.49,1.99ZM403.39,297.19c-.31-1.84-2.06-1.67-3.37-2.12-8.09-2.77-33.52-5.82-40.9-2.64-1.39.6-2.03,1.16-1.73,2.76,15.21,2.44,30.61,2.09,45.99,2Z"/>
      <path fill="#f3dece" d="M411.39,110.2c.75-11.83.63-23.69.95-35.55.49-17.7,5.74-49.31-13.58-59.34-18.07-9.37-34.58,1.07-39.08,19.68-5.54,22.91-1.67,48.55-4.04,71.75l55.75,3.46Z"/>
      <path fill="#f3dece" d="M490.41,160.18l50.47,12.04c4.08-15.95,8.67-31.88,12.03-48,3.56-17.09,11.07-40.26-9.14-49.89-11.37-5.42-22.95-4.51-30.79,5.96-7.91,10.56-19.56,59.97-22.13,74.86-.29,1.67-.72,3.31-.44,5.03Z"/>
      <path fill="#f3dece" d="M220.39,156.2c16.81-6.05,33.72-13.43,52-13.01-4.28-21.49-6.56-44.65-14.25-65.24-5.1-13.65-10.28-22.87-26.99-20.49-23.38,3.33-21.54,28.53-19.63,46.11,1.92,17.66,6.78,35,8.88,52.63Z"/>
      <path fill="#f3dece" d="M649.3,307.15c7.21-13.64,16.45-26.26,23.6-39.93,7.44-14.2,19.62-37.5-.62-47.42-19.89-9.75-34.68,15.88-43.92,29.88-6.62,10.03-12.37,20.81-18.7,31.04.2,2.44,37.68,27.81,39.63,26.43Z"/>
      <path fill="#b75e5e" d="M299.39,704.21l12.46,6.02c20.57,6.22,42.1,8.04,63.53,6.96-1.09-2.25-4.78-2.87-6.99-3.5-21.58-6.1-46.68-7.8-69-9.48Z"/>
      <path fill="#b75e5e" d="M353.39,201.19l55.01-.49c-15.3-9.46-35.94-10.21-51.99-1.98-1.15.59-2.77.92-3.02,2.47Z"/>
      <path fill="#b75e5e" d="M473.89,236.2c-.4.06-2.86.98-2.49,1.99,17.28,3.42,33.99,8.71,49.98,16.01,2.39-2.51-14.1-12.62-16.01-13.48-2.13-.96-11.91-4.52-13.48-4.52-5.38,0-13.01-.69-18,0Z"/>
      <path fill="#b75e5e" d="M239.39,228.19l46.99-12.98c-16.22-3.06-34.75,1.86-46.99,12.98Z"/>
      <path fill="#b75e5e" d="M357.39,295.19c15.21,2.44,30.61,2.09,45.99,2-.31-1.84-2.06-1.67-3.37-2.12-8.09-2.77-33.52-5.82-40.90-2.64-1.39.6-2.03,1.16-1.73,2.76Z"/>
    </g>
  </g>
</svg>
