<?xml version="1.0" encoding="UTF-8"?>
<svg id="Layer_2" data-name="Layer 2" xmlns="http://www.w3.org/2000/svg" viewBox="0 0 384.9 853.81">
  <g id="Layer_1-2" data-name="Layer 1">
    <path fill="#f3dece" d="M139.79,850.81l-42.39-147.78-16.04-45.82-33.8-56.13-39.52-122.58-1.72-37.23,6.87-20.62,29.79-35.51,6.3-17.18,5.73-74.46,2.86-103.1,3.44-28.64,5.16-76.76,4.01-44.68,12.03-22.34,9.16-12.6,19.48-1.15,11.46,14.32,4.58,39.52-2.29,56.13,4.01,52.7.57,60.72,10.88-13.75,13.75-16.61,11.46-9.16,31.5,4.58,14.32,18.33,4.58,56.71,1.15,17.18,16.61-2.86,28.07,12.6,23.48,57.28,23.48,7.45,32.08,21.19,12.03,33.22,2.86,57.85-12.6,73.32-13.75,58.43-5.16,37.23s11.46,41.24,11.46,42.96,4.01,37.8,4.01,37.8l12.03,46.4,18.9,53.84,10.88,27.49-241.72,1.72Z"/>
    <g>
      <path fill="#b75e5e" d="M79.8,26.79l-5.51,16.99c-6.63,29.36-5.01,59.67-7.5,89.5-1.47,17.63-5.12,35.31-5.98,53.02-1.87,38.48,2.49,78.65-1.02,116.98-2.26,24.73-5.25,50.15-8.12,74.88-3.27,28.23-10.09,56.28-12.89,84.62-1.69,0-1.9-3.33-2-4.49-1.7-21.29,2.7-42.47,4.51-63.5-9.28,13.07-23.8,24.1-29.69,39.31-7.64,19.76.25,45.04,5.68,64.68,7.46,26.94,16.36,58.51,26.75,84.25,12.29,30.46,34.28,55.15,45.77,86.23,11.77,31.82,22.73,69.71,32.48,102.52,7.69,25.89,14.35,52.14,20.52,78.44l-3.52,3.58-3.24-2.79c-7.27-27.77-14.59-55.55-23-83-9.72-31.75-20.59-70.98-32.78-101.22-10.6-26.28-29.39-47.81-40.66-73.34C27.84,566.74-.12,480.26,0,453.29c.15-33.52,22.56-42.64,38.03-66.77,9.67-15.08,6.81-30.16,8.78-47.22,5.8-50.35,8.88-97.24,5.95-148.05,5.72-37.78,5.81-76,9.05-113.95,2.19-25.66,9.14-88.49,48.55-75.56,5.5,1.81,8.81,4.22,12.08,8.92,19.09,27.5,4.24,89.09,5.32,122.68.63,19.62,4.09,39.37,5.04,58.96.46,9.45-.32,19.03.02,28.48l12.01-20.47c13.96-20.72,50.94-21.4,64.18-.22,12.71,20.34,8.75,43.67,9.76,66.24.22,4.94,1.88,10.2,1.05,15.45,21.5-7.1,42,5.73,51.87,24.63,5.16,9.88,11.64,35.92,17.68,42.32,3.19,3.38,18.4,7.67,23.8,10.2,40.94,19.11,48.2,51.57,45.63,94.35-1.53,25.56-5.27,57.45-9.13,82.87-5,32.91-22.61,68.86-20.85,101.13,1.11,20.44,7.55,35.67,11.53,54.47,2.15,10.17,2.09,20.96,3.75,31.25,6.94,42.98,28.16,84.83,40.78,126.33.42,3.37-4.03,5.55-6.13,2.76-16.94-44.79-36.29-89.23-43.81-136.92-.76-4.79-.48-10.87-1.24-15.76-3.27-20.82-15.86-37.18-30.87-51.13l5.91,2.09,16.09,13.4c-5.2-20.98-4.87-42.44.07-63.42,8.23-34.93,16.52-60.1,20.92-97.08,6.91-58.04,20.16-121.44-49.51-143.48-.51-.16-1.63-.27-1.48.48l9.99,12.01c-5.62.37-11.78-5.24-15.51-9.49-17.52-20-17.89-59-41.8-71.2-8.1-4.13-19.03-7.28-27.2-1.84-.06,14.81,3.35,30.15,7.53,44.51l-2,.51c-7.61-11.63-11.25-23.83-12.89-37.62-2.9-24.34,2.73-77.45-12.28-95.72-11.10-13.51-34.94-11.92-46.89-.19-16.53,16.23-24.06,49.7-19.95,72.03l2.98,15.51c3.3-17.99-.97-38.72,6.99-55.52.25-.52,1.05-3.39,2.04-1.97-4.66,26.05,1.44,53.84-8.98,78.89-1.83,2.48-3.18-2.21-3.56-3.38-12.21-36.97-6.77-82.14-8.43-120.57-1.11-25.75-5.23-49.56-4.03-75.95.65-14.26,3.48-28.70,4.03-42.97.48-12.57-.34-25.12-2.05-37.54l-3.8,19.68c-7.17,18.25-36.83,16.75-39.18-4.18-.65-5.80.48-12.58,0-18.50ZM110.81,54.26l-2.01-3.47,4.99.99c1.81-1.34,5.31-27.78,5.07-31.53-.92-14.45-26.90-17.44-32.94-5.84-3.40,6.54-3.51,35.04,2.18,40.07,4.88,4.32,17.75,4.80,22.71-.22Z"/>
      <path fill="#b75e5e" d="M198.8,331.8l5.7,19.79,3.28,19.2c4.25-12.31.99-26.65-6.4-37.11-.84-1.19-.03-2.46-2.59-1.87Z"/>
      <path fill="#b75e5e" d="M268.8,358.8c5.29,10.41,11.17,20.94,11.49,32.99,1.67-1.14,1.43-2.73,1.56-4.44.78-10.39-1.53-25.29-13.05-28.54Z"/>
      <path fill="#b75e5e" d="M73.81,187.8c-.24,1.77,2.27.99,3.37.87,4.03-.44,8.40-2.37,12.23-2.78,6.83-.73,14.88-.35,21.39,1.89v-1.98c-11.98-5.30-25.51-3.96-36.98,2Z"/>
      <path fill="#b75e5e" d="M73.8,209.8c8.56,7.69,25.64,5.34,33-3-11.23,3.58-21.20,5.13-33,3Z"/>
      <path fill="#b75e5e" d="M338.81,421.79c2.16-.57,1.99-2.73,2.07-4.48.41-8.57-4.05-19.75-12.07-23.52,4.34,9.41,9.96,16.93,10,28Z"/>
      <path fill="#b75e5e" d="M185.3,204.79c1.48.23,10.08,4.38,10.49,4,.37-2.19-1.94-3.14-3.46-4.03-5.97-3.46-14.65-3.92-21.21-2.11-1.72.47-2.77-.73-2.32,2.14,5.11.56,11.61-.77,16.5,0Z"/>
      <path fill="#b75e5e" d="M87.3,100.79c-.81.09-2.18,1.36-3.49,1.01-.27,1.30,1.86,1.60,2.74,1.74,7.26,1.11,16,.15,23.25-.76.43-1.01-2.33-1.99-2.49-1.99-6.15,0-14.17-.68-20,0Z"/>
      <path fill="#b75e5e" d="M80.8,201.78c6.35-.69,13.19-.66,19.39-2.10,1.47-.34,5.17-1.19,5.61-2.88-7.76.37-19.15-.60-24.99,4.98Z"/>
    </g>
  </g>
</svg>
